<svg width="72" height="73" viewBox="0 0 72 73" fill="none" xmlns="http://www.w3.org/2000/svg">
<circle cx="36" cy="36.9957" r="36" fill="#72B3EA"/>
<path d="M36.4445 56.2401C33.8311 56.2401 31.3852 55.7512 29.1067 54.7735C26.8282 53.7957 24.8371 52.455 23.1334 50.7512C21.4297 49.0475 20.089 47.0564 19.1112 44.778C18.1334 42.4995 17.6445 40.0535 17.6445 37.4401C17.6445 34.8327 18.1334 32.3883 19.1112 30.1068C20.089 27.8253 21.4297 25.8327 23.1334 24.129C24.8371 22.4253 26.8282 21.0846 29.1067 20.1068C31.3852 19.129 33.8311 18.6401 36.4445 18.6401C39.0519 18.6401 41.4964 19.129 43.7779 20.1068C46.0593 21.0846 48.0519 22.4253 49.7556 24.129C51.4593 25.8327 52.8001 27.8253 53.7779 30.1068C54.7556 32.3883 55.2445 34.8388 55.2445 37.4584V39.7957C55.2445 41.7216 54.6001 43.2698 53.3112 44.4401C52.0223 45.6105 50.4001 46.1957 48.4445 46.1957C47.2624 46.1957 46.1742 45.9142 45.1801 45.3512C44.186 44.7883 43.4519 44.0179 42.9779 43.0401C42.2668 44.1364 41.3408 44.9364 40.2001 45.4401C39.0593 45.9438 37.8075 46.1957 36.4445 46.1957C34.0048 46.1957 31.9282 45.3518 30.2148 43.6639C28.5013 41.976 27.6445 39.8945 27.6445 37.4194C27.6445 34.974 28.5002 32.892 30.2116 31.1735C31.923 29.455 33.9971 28.5957 36.4339 28.5957C38.9002 28.5957 40.9853 29.4475 42.689 31.1512C44.3927 32.855 45.2445 34.9512 45.2445 37.4401V39.4816C45.2445 40.3399 45.5556 41.0661 46.1779 41.6601C46.8001 42.2542 47.5556 42.5512 48.4445 42.5512C49.3038 42.5512 50.0371 42.2542 50.6445 41.6601C51.2519 41.0661 51.5556 40.3399 51.5556 39.4816V37.4401C51.5556 33.2031 50.0964 29.6253 47.1779 26.7068C44.2593 23.7883 40.6742 22.329 36.4223 22.329C32.2297 22.329 28.6668 23.7957 25.7334 26.729C22.8001 29.6624 21.3334 33.2327 21.3334 37.4401C21.3334 41.6772 22.7927 45.255 25.7112 48.1735C28.6297 51.092 32.2075 52.5513 36.4445 52.5513H44.1334C44.646 52.5513 45.0779 52.7289 45.429 53.0842C45.7801 53.4395 45.9556 53.8765 45.9556 54.3953C45.9556 54.9141 45.7801 55.3512 45.429 55.7068C45.0779 56.0624 44.646 56.2401 44.1334 56.2401H36.4445ZM36.455 42.5512C37.8702 42.5512 39.0816 42.0545 40.089 41.0611C41.0964 40.0676 41.6001 38.8676 41.6001 37.4611C41.6001 36.0249 41.0929 34.7957 40.0785 33.7735C39.0641 32.7512 37.8493 32.2401 36.4341 32.2401C35.0188 32.2401 33.8075 32.7512 32.8001 33.7735C31.7927 34.7957 31.289 36.0249 31.289 37.4611C31.289 38.8676 31.7962 40.0676 32.8105 41.0611C33.8249 42.0545 35.0397 42.5512 36.455 42.5512Z" fill="white"/>
</svg>
