<svg width="72" height="73" viewBox="0 0 72 73" fill="none" xmlns="http://www.w3.org/2000/svg">
<circle cx="36" cy="36.9957" r="36" fill="#72B3EA"/>
<g clip-path="url(#clip0_182_3850)">
<path d="M27.1553 58.018C25.9983 58.018 25.0127 57.611 24.1987 56.7971C23.3846 55.9829 22.9775 54.9972 22.9775 53.8402V21.0402C22.9775 19.8832 23.3846 18.8976 24.1987 18.0835C25.0127 17.2695 25.9983 16.8624 27.1553 16.8624H45.7331C46.8901 16.8624 47.8757 17.2695 48.6898 18.0835C49.5038 18.8976 49.9109 19.8832 49.9109 21.0402V53.8402C49.9109 54.9972 49.5038 55.9829 48.6898 56.7971C47.8757 57.611 46.8901 58.018 45.7331 58.018H27.1553ZM27.1553 49.8402H45.7331V25.0402H27.1553V49.8402Z" fill="white"/>
</g>
<defs>
<clipPath id="clip0_182_3850">
<rect width="42.6667" height="42.6667" fill="white" transform="translate(15.1113 16.1068)"/>
</clipPath>
</defs>
</svg>
